# xmcd
#
# Track frame offsets:
#	150
#	12801
#	23297
#	31684
#	44857
#	56846
#	71621
#	81024
#	95244
#	105971
#	119136
#	134821
#	146614
#	154898
#	165523
#	185889
#	195174
#	207799
#	218788
#	231474
#
# Disc length: 3226 seconds
#
# Revision: 1
# Processed by: cddbd v1.5.2PL0 Copyright (c) Steve Scherf et al.
# Submitted via: audiograbber 1.83.01
#
DISCID=200c9814
DTITLE=Whiskey Daredevils - The Essential
DYEAR=1900
DGENRE=Rock and Roll
TTITLE0=Bacon Martini
TTITLE1=Ear To The Ground
TTITLE2=Ironic Trucker Hat
TTITLE3=Devils Radio
TTITLE4=Lid Of Bluegrass
TTITLE5=Wichita Buzzcut
TTITLE6=Pedro (Have you Seen The Bottle Opener?)
TTITLE7=Jesus Walks Beside Me
TTITLE8=Mickey's Bigmouth
TTITLE9=Worm
TTITLE10=Trucker Bomb
TTITLE11=AMC Hornet
TTITLE12=Place By The Sea
TTITLE13=Eyepatch Kid
TTITLE14=Greasy Box
TTITLE15=No One Belives In Zeus Much Anymore
TTITLE16=Hombre Secreto
TTITLE17=Ida Jane
TTITLE18=Chicken Head
TTITLE19=Long Gone
EXTD=
EXTT0=
EXTT1=
EXTT2=
EXTT3=
EXTT4=
EXTT5=
EXTT6=
EXTT7=
EXTT8=
EXTT9=
EXTT10=
EXTT11=
EXTT12=
EXTT13=
EXTT14=
EXTT15=
EXTT16=
EXTT17=
EXTT18=
EXTT19=
PLAYORDER=
